solid landing_gear
  facet normal 0.000000e+00 -1.950903e-01 -9.807853e-01
    outer loop
      vertex 4.000000e-01 0.000000e+00 -8.000000e-02
      vertex 4.000000e-01 1.913417e-02 -8.380602e-02
      vertex 4.100000e-01 0.000000e+00 -8.000000e-02
    endloop
  endfacet
  facet normal 0.000000e+00 -1.950903e-01 -9.807853e-01
    outer loop
      vertex 4.100000e-01 0.000000e+00 -8.000000e-02
      vertex 4.000000e-01 1.913417e-02 -8.380602e-02
      vertex 4.100000e-01 1.913417e-02 -8.380602e-02
    endloop
  endfacet
  facet normal 0.000000e+00 -5.555702e-01 -8.314696e-01
    outer loop
      vertex 4.000000e-01 1.913417e-02 -8.380602e-02
      vertex 4.000000e-01 3.535534e-02 -9.464466e-02
      vertex 4.100000e-01 1.913417e-02 -8.380602e-02
    endloop
  endfacet
  facet normal 0.000000e+00 -5.555702e-01 -8.314696e-01
    outer loop
      vertex 4.100000e-01 1.913417e-02 -8.380602e-02
      vertex 4.000000e-01 3.535534e-02 -9.464466e-02
      vertex 4.100000e-01 3.535534e-02 -9.464466e-02
    endloop
  endfacet
  facet normal 0.000000e+00 -8.314696e-01 -5.555702e-01
    outer loop
      vertex 4.000000e-01 3.535534e-02 -9.464466e-02
      vertex 4.000000e-01 4.619398e-02 -1.108658e-01
      vertex 4.100000e-01 3.535534e-02 -9.464466e-02
    endloop
  endfacet
  facet normal 0.000000e+00 -8.314696e-01 -5.555702e-01
    outer loop
      vertex 4.100000e-01 3.535534e-02 -9.464466e-02
      vertex 4.000000e-01 4.619398e-02 -1.108658e-01
      vertex 4.100000e-01 4.619398e-02 -1.108658e-01
    endloop
  endfacet
  facet normal 0.000000e+00 -9.807853e-01 -1.950903e-01
    outer loop
      vertex 4.000000e-01 4.619398e-02 -1.108658e-01
      vertex 4.000000e-01 5.000000e-02 -1.300000e-01
      vertex 4.100000e-01 4.619398e-02 -1.108658e-01
    endloop
  endfacet
  facet normal 0.000000e+00 -9.807853e-01 -1.950903e-01
    outer loop
      vertex 4.100000e-01 4.619398e-02 -1.108658e-01
      vertex 4.000000e-01 5.000000e-02 -1.300000e-01
      vertex 4.100000e-01 5.000000e-02 -1.300000e-01
    endloop
  endfacet
  facet normal 0.000000e+00 -9.807853e-01 1.950903e-01
    outer loop
      vertex 4.000000e-01 5.000000e-02 -1.300000e-01
      vertex 4.000000e-01 4.619398e-02 -1.491342e-01
      vertex 4.100000e-01 5.000000e-02 -1.300000e-01
    endloop
  endfacet
  facet normal 0.000000e+00 -9.807853e-01 1.950903e-01
    outer loop
      vertex 4.100000e-01 5.000000e-02 -1.300000e-01
      vertex 4.000000e-01 4.619398e-02 -1.491342e-01
      vertex 4.100000e-01 4.619398e-02 -1.491342e-01
    endloop
  endfacet
  facet normal 0.000000e+00 -8.314696e-01 5.555702e-01
    outer loop
      vertex 4.000000e-01 4.619398e-02 -1.491342e-01
      vertex 4.000000e-01 3.535534e-02 -1.653553e-01
      vertex 4.100000e-01 4.619398e-02 -1.491342e-01
    endloop
  endfacet
  facet normal 0.000000e+00 -8.314696e-01 5.555702e-01
    outer loop
      vertex 4.100000e-01 4.619398e-02 -1.491342e-01
      vertex 4.000000e-01 3.535534e-02 -1.653553e-01
      vertex 4.100000e-01 3.535534e-02 -1.653553e-01
    endloop
  endfacet
  facet normal 0.000000e+00 -5.555702e-01 8.314696e-01
    outer loop
      vertex 4.000000e-01 3.535534e-02 -1.653553e-01
      vertex 4.000000e-01 1.913417e-02 -1.761940e-01
      vertex 4.100000e-01 3.535534e-02 -1.653553e-01
    endloop
  endfacet
  facet normal 0.000000e+00 -5.555702e-01 8.314696e-01
    outer loop
      vertex 4.100000e-01 3.535534e-02 -1.653553e-01
      vertex 4.000000e-01 1.913417e-02 -1.761940e-01
      vertex 4.100000e-01 1.913417e-02 -1.761940e-01
    endloop
  endfacet
  facet normal 0.000000e+00 -1.950903e-01 9.807853e-01
    outer loop
      vertex 4.000000e-01 1.913417e-02 -1.761940e-01
      vertex 4.000000e-01 6.123234e-18 -1.800000e-01
      vertex 4.100000e-01 1.913417e-02 -1.761940e-01
    endloop
  endfacet
  facet normal 0.000000e+00 -1.950903e-01 9.807853e-01
    outer loop
      vertex 4.100000e-01 1.913417e-02 -1.761940e-01
      vertex 4.000000e-01 6.123234e-18 -1.800000e-01
      vertex 4.100000e-01 6.123234e-18 -1.800000e-01
    endloop
  endfacet
  facet normal -0.000000e+00 1.950903e-01 9.807853e-01
    outer loop
      vertex 4.000000e-01 6.123234e-18 -1.800000e-01
      vertex 4.000000e-01 -1.913417e-02 -1.761940e-01
      vertex 4.100000e-01 6.123234e-18 -1.800000e-01
    endloop
  endfacet
  facet normal 0.000000e+00 1.950903e-01 9.807853e-01
    outer loop
      vertex 4.100000e-01 6.123234e-18 -1.800000e-01
      vertex 4.000000e-01 -1.913417e-02 -1.761940e-01
      vertex 4.100000e-01 -1.913417e-02 -1.761940e-01
    endloop
  endfacet
  facet normal -0.000000e+00 5.555702e-01 8.314696e-01
    outer loop
      vertex 4.000000e-01 -1.913417e-02 -1.761940e-01
      vertex 4.000000e-01 -3.535534e-02 -1.653553e-01
      vertex 4.100000e-01 -1.913417e-02 -1.761940e-01
    endloop
  endfacet
  facet normal 0.000000e+00 5.555702e-01 8.314696e-01
    outer loop
      vertex 4.100000e-01 -1.913417e-02 -1.761940e-01
      vertex 4.000000e-01 -3.535534e-02 -1.653553e-01
      vertex 4.100000e-01 -3.535534e-02 -1.653553e-01
    endloop
  endfacet
  facet normal -0.000000e+00 8.314696e-01 5.555702e-01
    outer loop
      vertex 4.000000e-01 -3.535534e-02 -1.653553e-01
      vertex 4.000000e-01 -4.619398e-02 -1.491342e-01
      vertex 4.100000e-01 -3.535534e-02 -1.653553e-01
    endloop
  endfacet
  facet normal 0.000000e+00 8.314696e-01 5.555702e-01
    outer loop
      vertex 4.100000e-01 -3.535534e-02 -1.653553e-01
      vertex 4.000000e-01 -4.619398e-02 -1.491342e-01
      vertex 4.100000e-01 -4.619398e-02 -1.491342e-01
    endloop
  endfacet
  facet normal -0.000000e+00 9.807853e-01 1.950903e-01
    outer loop
      vertex 4.000000e-01 -4.619398e-02 -1.491342e-01
      vertex 4.000000e-01 -5.000000e-02 -1.300000e-01
      vertex 4.100000e-01 -4.619398e-02 -1.491342e-01
    endloop
  endfacet
  facet normal 0.000000e+00 9.807853e-01 1.950903e-01
    outer loop
      vertex 4.100000e-01 -4.619398e-02 -1.491342e-01
      vertex 4.000000e-01 -5.000000e-02 -1.300000e-01
      vertex 4.100000e-01 -5.000000e-02 -1.300000e-01
    endloop
  endfacet
  facet normal 0.000000e+00 9.807853e-01 -1.950903e-01
    outer loop
      vertex 4.000000e-01 -5.000000e-02 -1.300000e-01
      vertex 4.000000e-01 -4.619398e-02 -1.108658e-01
      vertex 4.100000e-01 -5.000000e-02 -1.300000e-01
    endloop
  endfacet
  facet normal 0.000000e+00 9.807853e-01 -1.950903e-01
    outer loop
      vertex 4.100000e-01 -5.000000e-02 -1.300000e-01
      vertex 4.000000e-01 -4.619398e-02 -1.108658e-01
      vertex 4.100000e-01 -4.619398e-02 -1.108658e-01
    endloop
  endfacet
  facet normal 0.000000e+00 8.314696e-01 -5.555702e-01
    outer loop
      vertex 4.000000e-01 -4.619398e-02 -1.108658e-01
      vertex 4.000000e-01 -3.535534e-02 -9.464466e-02
      vertex 4.100000e-01 -4.619398e-02 -1.108658e-01
    endloop
  endfacet
  facet normal 0.000000e+00 8.314696e-01 -5.555702e-01
    outer loop
      vertex 4.100000e-01 -4.619398e-02 -1.108658e-01
      vertex 4.000000e-01 -3.535534e-02 -9.464466e-02
      vertex 4.100000e-01 -3.535534e-02 -9.464466e-02
    endloop
  endfacet
  facet normal 0.000000e+00 5.555702e-01 -8.314696e-01
    outer loop
      vertex 4.000000e-01 -3.535534e-02 -9.464466e-02
      vertex 4.000000e-01 -1.913417e-02 -8.380602e-02
      vertex 4.100000e-01 -3.535534e-02 -9.464466e-02
    endloop
  endfacet
  facet normal 0.000000e+00 5.555702e-01 -8.314696e-01
    outer loop
      vertex 4.100000e-01 -3.535534e-02 -9.464466e-02
      vertex 4.000000e-01 -1.913417e-02 -8.380602e-02
      vertex 4.100000e-01 -1.913417e-02 -8.380602e-02
    endloop
  endfacet
  facet normal 0.000000e+00 1.950903e-01 -9.807853e-01
    outer loop
      vertex 4.000000e-01 -1.913417e-02 -8.380602e-02
      vertex 4.000000e-01 -1.224647e-17 -8.000000e-02
      vertex 4.100000e-01 -1.913417e-02 -8.380602e-02
    endloop
  endfacet
  facet normal 0.000000e+00 1.950903e-01 -9.807853e-01
    outer loop
      vertex 4.100000e-01 -1.913417e-02 -8.380602e-02
      vertex 4.000000e-01 -1.224647e-17 -8.000000e-02
      vertex 4.100000e-01 -1.224647e-17 -8.000000e-02
    endloop
  endfacet
  facet normal 0.000000e+00 -1.950903e-01 -9.807853e-01
    outer loop
      vertex -2.000000e-01 -3.500000e-01 -2.000000e-02
      vertex -2.000000e-01 -3.193853e-01 -2.608964e-02
      vertex -1.900000e-01 -3.500000e-01 -2.000000e-02
    endloop
  endfacet
  facet normal 0.000000e+00 -1.950903e-01 -9.807853e-01
    outer loop
      vertex -1.900000e-01 -3.500000e-01 -2.000000e-02
      vertex -2.000000e-01 -3.193853e-01 -2.608964e-02
      vertex -1.900000e-01 -3.193853e-01 -2.608964e-02
    endloop
  endfacet
  facet normal 0.000000e+00 -5.555702e-01 -8.314696e-01
    outer loop
      vertex -2.000000e-01 -3.193853e-01 -2.608964e-02
      vertex -2.000000e-01 -2.934315e-01 -4.343146e-02
      vertex -1.900000e-01 -3.193853e-01 -2.608964e-02
    endloop
  endfacet
  facet normal 0.000000e+00 -5.555702e-01 -8.314696e-01
    outer loop
      vertex -1.900000e-01 -3.193853e-01 -2.608964e-02
      vertex -2.000000e-01 -2.934315e-01 -4.343146e-02
      vertex -1.900000e-01 -2.934315e-01 -4.343146e-02
    endloop
  endfacet
  facet normal 0.000000e+00 -8.314696e-01 -5.555702e-01
    outer loop
      vertex -2.000000e-01 -2.934315e-01 -4.343146e-02
      vertex -2.000000e-01 -2.760896e-01 -6.938533e-02
      vertex -1.900000e-01 -2.934315e-01 -4.343146e-02
    endloop
  endfacet
  facet normal 0.000000e+00 -8.314696e-01 -5.555702e-01
    outer loop
      vertex -1.900000e-01 -2.934315e-01 -4.343146e-02
      vertex -2.000000e-01 -2.760896e-01 -6.938533e-02
      vertex -1.900000e-01 -2.760896e-01 -6.938533e-02
    endloop
  endfacet
  facet normal 0.000000e+00 -9.807853e-01 -1.950903e-01
    outer loop
      vertex -2.000000e-01 -2.760896e-01 -6.938533e-02
      vertex -2.000000e-01 -2.700000e-01 -1.000000e-01
      vertex -1.900000e-01 -2.760896e-01 -6.938533e-02
    endloop
  endfacet
  facet normal 0.000000e+00 -9.807853e-01 -1.950903e-01
    outer loop
      vertex -1.900000e-01 -2.760896e-01 -6.938533e-02
      vertex -2.000000e-01 -2.700000e-01 -1.000000e-01
      vertex -1.900000e-01 -2.700000e-01 -1.000000e-01
    endloop
  endfacet
  facet normal 0.000000e+00 -9.807853e-01 1.950903e-01
    outer loop
      vertex -2.000000e-01 -2.700000e-01 -1.000000e-01
      vertex -2.000000e-01 -2.760896e-01 -1.306147e-01
      vertex -1.900000e-01 -2.700000e-01 -1.000000e-01
    endloop
  endfacet
  facet normal 0.000000e+00 -9.807853e-01 1.950903e-01
    outer loop
      vertex -1.900000e-01 -2.700000e-01 -1.000000e-01
      vertex -2.000000e-01 -2.760896e-01 -1.306147e-01
      vertex -1.900000e-01 -2.760896e-01 -1.306147e-01
    endloop
  endfacet
  facet normal 0.000000e+00 -8.314696e-01 5.555702e-01
    outer loop
      vertex -2.000000e-01 -2.760896e-01 -1.306147e-01
      vertex -2.000000e-01 -2.934315e-01 -1.565685e-01
      vertex -1.900000e-01 -2.760896e-01 -1.306147e-01
    endloop
  endfacet
  facet normal 0.000000e+00 -8.314696e-01 5.555702e-01
    outer loop
      vertex -1.900000e-01 -2.760896e-01 -1.306147e-01
      vertex -2.000000e-01 -2.934315e-01 -1.565685e-01
      vertex -1.900000e-01 -2.934315e-01 -1.565685e-01
    endloop
  endfacet
  facet normal 0.000000e+00 -5.555702e-01 8.314696e-01
    outer loop
      vertex -2.000000e-01 -2.934315e-01 -1.565685e-01
      vertex -2.000000e-01 -3.193853e-01 -1.739104e-01
      vertex -1.900000e-01 -2.934315e-01 -1.565685e-01
    endloop
  endfacet
  facet normal 0.000000e+00 -5.555702e-01 8.314696e-01
    outer loop
      vertex -1.900000e-01 -2.934315e-01 -1.565685e-01
      vertex -2.000000e-01 -3.193853e-01 -1.739104e-01
      vertex -1.900000e-01 -3.193853e-01 -1.739104e-01
    endloop
  endfacet
  facet normal 0.000000e+00 -1.950903e-01 9.807853e-01
    outer loop
      vertex -2.000000e-01 -3.193853e-01 -1.739104e-01
      vertex -2.000000e-01 -3.500000e-01 -1.800000e-01
      vertex -1.900000e-01 -3.193853e-01 -1.739104e-01
    endloop
  endfacet
  facet normal 0.000000e+00 -1.950903e-01 9.807853e-01
    outer loop
      vertex -1.900000e-01 -3.193853e-01 -1.739104e-01
      vertex -2.000000e-01 -3.500000e-01 -1.800000e-01
      vertex -1.900000e-01 -3.500000e-01 -1.800000e-01
    endloop
  endfacet
  facet normal -0.000000e+00 1.950903e-01 9.807853e-01
    outer loop
      vertex -2.000000e-01 -3.500000e-01 -1.800000e-01
      vertex -2.000000e-01 -3.806147e-01 -1.739104e-01
      vertex -1.900000e-01 -3.500000e-01 -1.800000e-01
    endloop
  endfacet
  facet normal 0.000000e+00 1.950903e-01 9.807853e-01
    outer loop
      vertex -1.900000e-01 -3.500000e-01 -1.800000e-01
      vertex -2.000000e-01 -3.806147e-01 -1.739104e-01
      vertex -1.900000e-01 -3.806147e-01 -1.739104e-01
    endloop
  endfacet
  facet normal -0.000000e+00 5.555702e-01 8.314696e-01
    outer loop
      vertex -2.000000e-01 -3.806147e-01 -1.739104e-01
      vertex -2.000000e-01 -4.065685e-01 -1.565685e-01
      vertex -1.900000e-01 -3.806147e-01 -1.739104e-01
    endloop
  endfacet
  facet normal 0.000000e+00 5.555702e-01 8.314696e-01
    outer loop
      vertex -1.900000e-01 -3.806147e-01 -1.739104e-01
      vertex -2.000000e-01 -4.065685e-01 -1.565685e-01
      vertex -1.900000e-01 -4.065685e-01 -1.565685e-01
    endloop
  endfacet
  facet normal -0.000000e+00 8.314696e-01 5.555702e-01
    outer loop
      vertex -2.000000e-01 -4.065685e-01 -1.565685e-01
      vertex -2.000000e-01 -4.239104e-01 -1.306147e-01
      vertex -1.900000e-01 -4.065685e-01 -1.565685e-01
    endloop
  endfacet
  facet normal 0.000000e+00 8.314696e-01 5.555702e-01
    outer loop
      vertex -1.900000e-01 -4.065685e-01 -1.565685e-01
      vertex -2.000000e-01 -4.239104e-01 -1.306147e-01
      vertex -1.900000e-01 -4.239104e-01 -1.306147e-01
    endloop
  endfacet
  facet normal -0.000000e+00 9.807853e-01 1.950903e-01
    outer loop
      vertex -2.000000e-01 -4.239104e-01 -1.306147e-01
      vertex -2.000000e-01 -4.300000e-01 -1.000000e-01
      vertex -1.900000e-01 -4.239104e-01 -1.306147e-01
    endloop
  endfacet
  facet normal 0.000000e+00 9.807853e-01 1.950903e-01
    outer loop
      vertex -1.900000e-01 -4.239104e-01 -1.306147e-01
      vertex -2.000000e-01 -4.300000e-01 -1.000000e-01
      vertex -1.900000e-01 -4.300000e-01 -1.000000e-01
    endloop
  endfacet
  facet normal 0.000000e+00 9.807853e-01 -1.950903e-01
    outer loop
      vertex -2.000000e-01 -4.300000e-01 -1.000000e-01
      vertex -2.000000e-01 -4.239104e-01 -6.938533e-02
      vertex -1.900000e-01 -4.300000e-01 -1.000000e-01
    endloop
  endfacet
  facet normal 0.000000e+00 9.807853e-01 -1.950903e-01
    outer loop
      vertex -1.900000e-01 -4.300000e-01 -1.000000e-01
      vertex -2.000000e-01 -4.239104e-01 -6.938533e-02
      vertex -1.900000e-01 -4.239104e-01 -6.938533e-02
    endloop
  endfacet
  facet normal 0.000000e+00 8.314696e-01 -5.555702e-01
    outer loop
      vertex -2.000000e-01 -4.239104e-01 -6.938533e-02
      vertex -2.000000e-01 -4.065685e-01 -4.343146e-02
      vertex -1.900000e-01 -4.239104e-01 -6.938533e-02
    endloop
  endfacet
  facet normal 0.000000e+00 8.314696e-01 -5.555702e-01
    outer loop
      vertex -1.900000e-01 -4.239104e-01 -6.938533e-02
      vertex -2.000000e-01 -4.065685e-01 -4.343146e-02
      vertex -1.900000e-01 -4.065685e-01 -4.343146e-02
    endloop
  endfacet
  facet normal 0.000000e+00 5.555702e-01 -8.314696e-01
    outer loop
      vertex -2.000000e-01 -4.065685e-01 -4.343146e-02
      vertex -2.000000e-01 -3.806147e-01 -2.608964e-02
      vertex -1.900000e-01 -4.065685e-01 -4.343146e-02
    endloop
  endfacet
  facet normal 0.000000e+00 5.555702e-01 -8.314696e-01
    outer loop
      vertex -1.900000e-01 -4.065685e-01 -4.343146e-02
      vertex -2.000000e-01 -3.806147e-01 -2.608964e-02
      vertex -1.900000e-01 -3.806147e-01 -2.608964e-02
    endloop
  endfacet
  facet normal 0.000000e+00 1.950903e-01 -9.807853e-01
    outer loop
      vertex -2.000000e-01 -3.806147e-01 -2.608964e-02
      vertex -2.000000e-01 -3.500000e-01 -2.000000e-02
      vertex -1.900000e-01 -3.806147e-01 -2.608964e-02
    endloop
  endfacet
  facet normal 0.000000e+00 1.950903e-01 -9.807853e-01
    outer loop
      vertex -1.900000e-01 -3.806147e-01 -2.608964e-02
      vertex -2.000000e-01 -3.500000e-01 -2.000000e-02
      vertex -1.900000e-01 -3.500000e-01 -2.000000e-02
    endloop
  endfacet
  facet normal 0.000000e+00 -1.950903e-01 -9.807853e-01
    outer loop
      vertex -2.000000e-01 3.500000e-01 -2.000000e-02
      vertex -2.000000e-01 3.806147e-01 -2.608964e-02
      vertex -1.900000e-01 3.500000e-01 -2.000000e-02
    endloop
  endfacet
  facet normal 0.000000e+00 -1.950903e-01 -9.807853e-01
    outer loop
      vertex -1.900000e-01 3.500000e-01 -2.000000e-02
      vertex -2.000000e-01 3.806147e-01 -2.608964e-02
      vertex -1.900000e-01 3.806147e-01 -2.608964e-02
    endloop
  endfacet
  facet normal 0.000000e+00 -5.555702e-01 -8.314696e-01
    outer loop
      vertex -2.000000e-01 3.806147e-01 -2.608964e-02
      vertex -2.000000e-01 4.065685e-01 -4.343146e-02
      vertex -1.900000e-01 3.806147e-01 -2.608964e-02
    endloop
  endfacet
  facet normal 0.000000e+00 -5.555702e-01 -8.314696e-01
    outer loop
      vertex -1.900000e-01 3.806147e-01 -2.608964e-02
      vertex -2.000000e-01 4.065685e-01 -4.343146e-02
      vertex -1.900000e-01 4.065685e-01 -4.343146e-02
    endloop
  endfacet
  facet normal 0.000000e+00 -8.314696e-01 -5.555702e-01
    outer loop
      vertex -2.000000e-01 4.065685e-01 -4.343146e-02
      vertex -2.000000e-01 4.239104e-01 -6.938533e-02
      vertex -1.900000e-01 4.065685e-01 -4.343146e-02
    endloop
  endfacet
  facet normal 0.000000e+00 -8.314696e-01 -5.555702e-01
    outer loop
      vertex -1.900000e-01 4.065685e-01 -4.343146e-02
      vertex -2.000000e-01 4.239104e-01 -6.938533e-02
      vertex -1.900000e-01 4.239104e-01 -6.938533e-02
    endloop
  endfacet
  facet normal 0.000000e+00 -9.807853e-01 -1.950903e-01
    outer loop
      vertex -2.000000e-01 4.239104e-01 -6.938533e-02
      vertex -2.000000e-01 4.300000e-01 -1.000000e-01
      vertex -1.900000e-01 4.239104e-01 -6.938533e-02
    endloop
  endfacet
  facet normal 0.000000e+00 -9.807853e-01 -1.950903e-01
    outer loop
      vertex -1.900000e-01 4.239104e-01 -6.938533e-02
      vertex -2.000000e-01 4.300000e-01 -1.000000e-01
      vertex -1.900000e-01 4.300000e-01 -1.000000e-01
    endloop
  endfacet
  facet normal 0.000000e+00 -9.807853e-01 1.950903e-01
    outer loop
      vertex -2.000000e-01 4.300000e-01 -1.000000e-01
      vertex -2.000000e-01 4.239104e-01 -1.306147e-01
      vertex -1.900000e-01 4.300000e-01 -1.000000e-01
    endloop
  endfacet
  facet normal 0.000000e+00 -9.807853e-01 1.950903e-01
    outer loop
      vertex -1.900000e-01 4.300000e-01 -1.000000e-01
      vertex -2.000000e-01 4.239104e-01 -1.306147e-01
      vertex -1.900000e-01 4.239104e-01 -1.306147e-01
    endloop
  endfacet
  facet normal 0.000000e+00 -8.314696e-01 5.555702e-01
    outer loop
      vertex -2.000000e-01 4.239104e-01 -1.306147e-01
      vertex -2.000000e-01 4.065685e-01 -1.565685e-01
      vertex -1.900000e-01 4.239104e-01 -1.306147e-01
    endloop
  endfacet
  facet normal 0.000000e+00 -8.314696e-01 5.555702e-01
    outer loop
      vertex -1.900000e-01 4.239104e-01 -1.306147e-01
      vertex -2.000000e-01 4.065685e-01 -1.565685e-01
      vertex -1.900000e-01 4.065685e-01 -1.565685e-01
    endloop
  endfacet
  facet normal 0.000000e+00 -5.555702e-01 8.314696e-01
    outer loop
      vertex -2.000000e-01 4.065685e-01 -1.565685e-01
      vertex -2.000000e-01 3.806147e-01 -1.739104e-01
      vertex -1.900000e-01 4.065685e-01 -1.565685e-01
    endloop
  endfacet
  facet normal 0.000000e+00 -5.555702e-01 8.314696e-01
    outer loop
      vertex -1.900000e-01 4.065685e-01 -1.565685e-01
      vertex -2.000000e-01 3.806147e-01 -1.739104e-01
      vertex -1.900000e-01 3.806147e-01 -1.739104e-01
    endloop
  endfacet
  facet normal 0.000000e+00 -1.950903e-01 9.807853e-01
    outer loop
      vertex -2.000000e-01 3.806147e-01 -1.739104e-01
      vertex -2.000000e-01 3.500000e-01 -1.800000e-01
      vertex -1.900000e-01 3.806147e-01 -1.739104e-01
    endloop
  endfacet
  facet normal 0.000000e+00 -1.950903e-01 9.807853e-01
    outer loop
      vertex -1.900000e-01 3.806147e-01 -1.739104e-01
      vertex -2.000000e-01 3.500000e-01 -1.800000e-01
      vertex -1.900000e-01 3.500000e-01 -1.800000e-01
    endloop
  endfacet
  facet normal -0.000000e+00 1.950903e-01 9.807853e-01
    outer loop
      vertex -2.000000e-01 3.500000e-01 -1.800000e-01
      vertex -2.000000e-01 3.193853e-01 -1.739104e-01
      vertex -1.900000e-01 3.500000e-01 -1.800000e-01
    endloop
  endfacet
  facet normal 0.000000e+00 1.950903e-01 9.807853e-01
    outer loop
      vertex -1.900000e-01 3.500000e-01 -1.800000e-01
      vertex -2.000000e-01 3.193853e-01 -1.739104e-01
      vertex -1.900000e-01 3.193853e-01 -1.739104e-01
    endloop
  endfacet
  facet normal -0.000000e+00 5.555702e-01 8.314696e-01
    outer loop
      vertex -2.000000e-01 3.193853e-01 -1.739104e-01
      vertex -2.000000e-01 2.934315e-01 -1.565685e-01
      vertex -1.900000e-01 3.193853e-01 -1.739104e-01
    endloop
  endfacet
  facet normal 0.000000e+00 5.555702e-01 8.314696e-01
    outer loop
      vertex -1.900000e-01 3.193853e-01 -1.739104e-01
      vertex -2.000000e-01 2.934315e-01 -1.565685e-01
      vertex -1.900000e-01 2.934315e-01 -1.565685e-01
    endloop
  endfacet
  facet normal -0.000000e+00 8.314696e-01 5.555702e-01
    outer loop
      vertex -2.000000e-01 2.934315e-01 -1.565685e-01
      vertex -2.000000e-01 2.760896e-01 -1.306147e-01
      vertex -1.900000e-01 2.934315e-01 -1.565685e-01
    endloop
  endfacet
  facet normal 0.000000e+00 8.314696e-01 5.555702e-01
    outer loop
      vertex -1.900000e-01 2.934315e-01 -1.565685e-01
      vertex -2.000000e-01 2.760896e-01 -1.306147e-01
      vertex -1.900000e-01 2.760896e-01 -1.306147e-01
    endloop
  endfacet
  facet normal -0.000000e+00 9.807853e-01 1.950903e-01
    outer loop
      vertex -2.000000e-01 2.760896e-01 -1.306147e-01
      vertex -2.000000e-01 2.700000e-01 -1.000000e-01
      vertex -1.900000e-01 2.760896e-01 -1.306147e-01
    endloop
  endfacet
  facet normal 0.000000e+00 9.807853e-01 1.950903e-01
    outer loop
      vertex -1.900000e-01 2.760896e-01 -1.306147e-01
      vertex -2.000000e-01 2.700000e-01 -1.000000e-01
      vertex -1.900000e-01 2.700000e-01 -1.000000e-01
    endloop
  endfacet
  facet normal 0.000000e+00 9.807853e-01 -1.950903e-01
    outer loop
      vertex -2.000000e-01 2.700000e-01 -1.000000e-01
      vertex -2.000000e-01 2.760896e-01 -6.938533e-02
      vertex -1.900000e-01 2.700000e-01 -1.000000e-01
    endloop
  endfacet
  facet normal 0.000000e+00 9.807853e-01 -1.950903e-01
    outer loop
      vertex -1.900000e-01 2.700000e-01 -1.000000e-01
      vertex -2.000000e-01 2.760896e-01 -6.938533e-02
      vertex -1.900000e-01 2.760896e-01 -6.938533e-02
    endloop
  endfacet
  facet normal 0.000000e+00 8.314696e-01 -5.555702e-01
    outer loop
      vertex -2.000000e-01 2.760896e-01 -6.938533e-02
      vertex -2.000000e-01 2.934315e-01 -4.343146e-02
      vertex -1.900000e-01 2.760896e-01 -6.938533e-02
    endloop
  endfacet
  facet normal 0.000000e+00 8.314696e-01 -5.555702e-01
    outer loop
      vertex -1.900000e-01 2.760896e-01 -6.938533e-02
      vertex -2.000000e-01 2.934315e-01 -4.343146e-02
      vertex -1.900000e-01 2.934315e-01 -4.343146e-02
    endloop
  endfacet
  facet normal 0.000000e+00 5.555702e-01 -8.314696e-01
    outer loop
      vertex -2.000000e-01 2.934315e-01 -4.343146e-02
      vertex -2.000000e-01 3.193853e-01 -2.608964e-02
      vertex -1.900000e-01 2.934315e-01 -4.343146e-02
    endloop
  endfacet
  facet normal 0.000000e+00 5.555702e-01 -8.314696e-01
    outer loop
      vertex -1.900000e-01 2.934315e-01 -4.343146e-02
      vertex -2.000000e-01 3.193853e-01 -2.608964e-02
      vertex -1.900000e-01 3.193853e-01 -2.608964e-02
    endloop
  endfacet
  facet normal 0.000000e+00 1.950903e-01 -9.807853e-01
    outer loop
      vertex -2.000000e-01 3.193853e-01 -2.608964e-02
      vertex -2.000000e-01 3.500000e-01 -2.000000e-02
      vertex -1.900000e-01 3.193853e-01 -2.608964e-02
    endloop
  endfacet
  facet normal 0.000000e+00 1.950903e-01 -9.807853e-01
    outer loop
      vertex -1.900000e-01 3.193853e-01 -2.608964e-02
      vertex -2.000000e-01 3.500000e-01 -2.000000e-02
      vertex -1.900000e-01 3.500000e-01 -2.000000e-02
    endloop
  endfacet
endsolid landing_gear
