solid tail
  facet normal -0.000000e+00 1.000000e+00 0.000000e+00
    outer loop
      vertex -4.800000e-01 -3.000000e-01 1.800000e-01
      vertex -3.300000e-01 -3.000000e-01 1.800000e-01
      vertex -4.800000e-01 -3.000000e-01 1.600000e-01
    endloop
  endfacet
  facet normal 0.000000e+00 1.000000e+00 0.000000e+00
    outer loop
      vertex -3.300000e-01 -3.000000e-01 1.800000e-01
      vertex -3.300000e-01 -3.000000e-01 1.600000e-01
      vertex -4.800000e-01 -3.000000e-01 1.600000e-01
    endloop
  endfacet
  facet normal -0.000000e+00 1.000000e+00 0.000000e+00
    outer loop
      vertex -3.300000e-01 -3.000000e-01 1.800000e-01
      vertex -1.800000e-01 -3.000000e-01 1.800000e-01
      vertex -3.300000e-01 -3.000000e-01 1.600000e-01
    endloop
  endfacet
  facet normal 0.000000e+00 1.000000e+00 0.000000e+00
    outer loop
      vertex -1.800000e-01 -3.000000e-01 1.800000e-01
      vertex -1.800000e-01 -3.000000e-01 1.600000e-01
      vertex -3.300000e-01 -3.000000e-01 1.600000e-01
    endloop
  endfacet
  facet normal -0.000000e+00 1.000000e+00 0.000000e+00
    outer loop
      vertex -4.800000e-01 3.000000e-01 1.800000e-01
      vertex -3.300000e-01 3.000000e-01 1.800000e-01
      vertex -4.800000e-01 3.000000e-01 1.600000e-01
    endloop
  endfacet
  facet normal 0.000000e+00 1.000000e+00 0.000000e+00
    outer loop
      vertex -3.300000e-01 3.000000e-01 1.800000e-01
      vertex -3.300000e-01 3.000000e-01 1.600000e-01
      vertex -4.800000e-01 3.000000e-01 1.600000e-01
    endloop
  endfacet
  facet normal -0.000000e+00 1.000000e+00 0.000000e+00
    outer loop
      vertex -3.300000e-01 3.000000e-01 1.800000e-01
      vertex -1.800000e-01 3.000000e-01 1.800000e-01
      vertex -3.300000e-01 3.000000e-01 1.600000e-01
    endloop
  endfacet
  facet normal 0.000000e+00 1.000000e+00 0.000000e+00
    outer loop
      vertex -1.800000e-01 3.000000e-01 1.800000e-01
      vertex -1.800000e-01 3.000000e-01 1.600000e-01
      vertex -3.300000e-01 3.000000e-01 1.600000e-01
    endloop
  endfacet
  facet normal 0.000000e+00 0.000000e+00 1.000000e+00
    outer loop
      vertex -4.800000e-01 -2.500000e-02 1.800000e-01
      vertex -3.800000e-01 -2.500000e-02 1.800000e-01
      vertex -4.800000e-01 2.500000e-02 1.800000e-01
    endloop
  endfacet
  facet normal 0.000000e+00 -0.000000e+00 1.000000e+00
    outer loop
      vertex -3.800000e-01 -2.500000e-02 1.800000e-01
      vertex -3.800000e-01 2.500000e-02 1.800000e-01
      vertex -4.800000e-01 2.500000e-02 1.800000e-01
    endloop
  endfacet
  facet normal 0.000000e+00 0.000000e+00 1.000000e+00
    outer loop
      vertex -3.800000e-01 -2.500000e-02 1.800000e-01
      vertex -2.800000e-01 -2.500000e-02 1.800000e-01
      vertex -3.800000e-01 2.500000e-02 1.800000e-01
    endloop
  endfacet
  facet normal 0.000000e+00 -0.000000e+00 1.000000e+00
    outer loop
      vertex -2.800000e-01 -2.500000e-02 1.800000e-01
      vertex -2.800000e-01 2.500000e-02 1.800000e-01
      vertex -3.800000e-01 2.500000e-02 1.800000e-01
    endloop
  endfacet
  facet normal 0.000000e+00 0.000000e+00 1.000000e+00
    outer loop
      vertex -4.800000e-01 -2.500000e-02 3.800000e-01
      vertex -3.800000e-01 -2.500000e-02 3.800000e-01
      vertex -4.800000e-01 2.500000e-02 3.800000e-01
    endloop
  endfacet
  facet normal 0.000000e+00 -0.000000e+00 1.000000e+00
    outer loop
      vertex -3.800000e-01 -2.500000e-02 3.800000e-01
      vertex -3.800000e-01 2.500000e-02 3.800000e-01
      vertex -4.800000e-01 2.500000e-02 3.800000e-01
    endloop
  endfacet
  facet normal 0.000000e+00 0.000000e+00 1.000000e+00
    outer loop
      vertex -3.800000e-01 -2.500000e-02 3.800000e-01
      vertex -2.800000e-01 -2.500000e-02 3.800000e-01
      vertex -3.800000e-01 2.500000e-02 3.800000e-01
    endloop
  endfacet
  facet normal 0.000000e+00 -0.000000e+00 1.000000e+00
    outer loop
      vertex -2.800000e-01 -2.500000e-02 3.800000e-01
      vertex -2.800000e-01 2.500000e-02 3.800000e-01
      vertex -3.800000e-01 2.500000e-02 3.800000e-01
    endloop
  endfacet
endsolid tail
