solid wings
  facet normal -0.000000e+00 1.000000e+00 0.000000e+00
    outer loop
      vertex 2.000000e-01 -1.000000e+00 1.500000e-01
      vertex 2.857143e-01 -1.000000e+00 1.500000e-01
      vertex 2.000000e-01 -1.000000e+00 1.200000e-01
    endloop
  endfacet
  facet normal 0.000000e+00 1.000000e+00 0.000000e+00
    outer loop
      vertex 2.857143e-01 -1.000000e+00 1.500000e-01
      vertex 2.857143e-01 -1.000000e+00 1.200000e-01
      vertex 2.000000e-01 -1.000000e+00 1.200000e-01
    endloop
  endfacet
  facet normal 0.000000e+00 -1.000000e+00 0.000000e+00
    outer loop
      vertex 2.000000e-01 -1.000000e+00 1.200000e-01
      vertex 2.857143e-01 -1.000000e+00 1.200000e-01
      vertex 2.000000e-01 -1.000000e+00 1.700000e-01
    endloop
  endfacet
  facet normal 0.000000e+00 -1.000000e+00 0.000000e+00
    outer loop
      vertex 2.857143e-01 -1.000000e+00 1.200000e-01
      vertex 2.857143e-01 -1.000000e+00 1.700000e-01
      vertex 2.000000e-01 -1.000000e+00 1.700000e-01
    endloop
  endfacet
  facet normal -0.000000e+00 1.000000e+00 0.000000e+00
    outer loop
      vertex 2.857143e-01 -1.000000e+00 1.500000e-01
      vertex 3.714286e-01 -1.000000e+00 1.500000e-01
      vertex 2.857143e-01 -1.000000e+00 1.200000e-01
    endloop
  endfacet
  facet normal 0.000000e+00 1.000000e+00 0.000000e+00
    outer loop
      vertex 3.714286e-01 -1.000000e+00 1.500000e-01
      vertex 3.714286e-01 -1.000000e+00 1.200000e-01
      vertex 2.857143e-01 -1.000000e+00 1.200000e-01
    endloop
  endfacet
  facet normal 0.000000e+00 -1.000000e+00 0.000000e+00
    outer loop
      vertex 2.857143e-01 -1.000000e+00 1.200000e-01
      vertex 3.714286e-01 -1.000000e+00 1.200000e-01
      vertex 2.857143e-01 -1.000000e+00 1.700000e-01
    endloop
  endfacet
  facet normal 0.000000e+00 -1.000000e+00 0.000000e+00
    outer loop
      vertex 3.714286e-01 -1.000000e+00 1.200000e-01
      vertex 3.714286e-01 -1.000000e+00 1.700000e-01
      vertex 2.857143e-01 -1.000000e+00 1.700000e-01
    endloop
  endfacet
  facet normal -0.000000e+00 1.000000e+00 0.000000e+00
    outer loop
      vertex 3.714286e-01 -1.000000e+00 1.500000e-01
      vertex 4.571429e-01 -1.000000e+00 1.500000e-01
      vertex 3.714286e-01 -1.000000e+00 1.200000e-01
    endloop
  endfacet
  facet normal 0.000000e+00 1.000000e+00 0.000000e+00
    outer loop
      vertex 4.571429e-01 -1.000000e+00 1.500000e-01
      vertex 4.571429e-01 -1.000000e+00 1.200000e-01
      vertex 3.714286e-01 -1.000000e+00 1.200000e-01
    endloop
  endfacet
  facet normal 0.000000e+00 -1.000000e+00 0.000000e+00
    outer loop
      vertex 3.714286e-01 -1.000000e+00 1.200000e-01
      vertex 4.571429e-01 -1.000000e+00 1.200000e-01
      vertex 3.714286e-01 -1.000000e+00 1.700000e-01
    endloop
  endfacet
  facet normal 0.000000e+00 -1.000000e+00 0.000000e+00
    outer loop
      vertex 4.571429e-01 -1.000000e+00 1.200000e-01
      vertex 4.571429e-01 -1.000000e+00 1.700000e-01
      vertex 3.714286e-01 -1.000000e+00 1.700000e-01
    endloop
  endfacet
  facet normal -0.000000e+00 1.000000e+00 0.000000e+00
    outer loop
      vertex 4.571429e-01 -1.000000e+00 1.500000e-01
      vertex 5.428571e-01 -1.000000e+00 1.500000e-01
      vertex 4.571429e-01 -1.000000e+00 1.200000e-01
    endloop
  endfacet
  facet normal 0.000000e+00 1.000000e+00 0.000000e+00
    outer loop
      vertex 5.428571e-01 -1.000000e+00 1.500000e-01
      vertex 5.428571e-01 -1.000000e+00 1.200000e-01
      vertex 4.571429e-01 -1.000000e+00 1.200000e-01
    endloop
  endfacet
  facet normal 0.000000e+00 -1.000000e+00 0.000000e+00
    outer loop
      vertex 4.571429e-01 -1.000000e+00 1.200000e-01
      vertex 5.428571e-01 -1.000000e+00 1.200000e-01
      vertex 4.571429e-01 -1.000000e+00 1.700000e-01
    endloop
  endfacet
  facet normal 0.000000e+00 -1.000000e+00 0.000000e+00
    outer loop
      vertex 5.428571e-01 -1.000000e+00 1.200000e-01
      vertex 5.428571e-01 -1.000000e+00 1.700000e-01
      vertex 4.571429e-01 -1.000000e+00 1.700000e-01
    endloop
  endfacet
  facet normal -0.000000e+00 1.000000e+00 0.000000e+00
    outer loop
      vertex 5.428571e-01 -1.000000e+00 1.500000e-01
      vertex 6.285714e-01 -1.000000e+00 1.500000e-01
      vertex 5.428571e-01 -1.000000e+00 1.200000e-01
    endloop
  endfacet
  facet normal 0.000000e+00 1.000000e+00 0.000000e+00
    outer loop
      vertex 6.285714e-01 -1.000000e+00 1.500000e-01
      vertex 6.285714e-01 -1.000000e+00 1.200000e-01
      vertex 5.428571e-01 -1.000000e+00 1.200000e-01
    endloop
  endfacet
  facet normal 0.000000e+00 -1.000000e+00 0.000000e+00
    outer loop
      vertex 5.428571e-01 -1.000000e+00 1.200000e-01
      vertex 6.285714e-01 -1.000000e+00 1.200000e-01
      vertex 5.428571e-01 -1.000000e+00 1.700000e-01
    endloop
  endfacet
  facet normal 0.000000e+00 -1.000000e+00 0.000000e+00
    outer loop
      vertex 6.285714e-01 -1.000000e+00 1.200000e-01
      vertex 6.285714e-01 -1.000000e+00 1.700000e-01
      vertex 5.428571e-01 -1.000000e+00 1.700000e-01
    endloop
  endfacet
  facet normal -0.000000e+00 1.000000e+00 0.000000e+00
    outer loop
      vertex 6.285714e-01 -1.000000e+00 1.500000e-01
      vertex 7.142857e-01 -1.000000e+00 1.500000e-01
      vertex 6.285714e-01 -1.000000e+00 1.200000e-01
    endloop
  endfacet
  facet normal 0.000000e+00 1.000000e+00 0.000000e+00
    outer loop
      vertex 7.142857e-01 -1.000000e+00 1.500000e-01
      vertex 7.142857e-01 -1.000000e+00 1.200000e-01
      vertex 6.285714e-01 -1.000000e+00 1.200000e-01
    endloop
  endfacet
  facet normal 0.000000e+00 -1.000000e+00 0.000000e+00
    outer loop
      vertex 6.285714e-01 -1.000000e+00 1.200000e-01
      vertex 7.142857e-01 -1.000000e+00 1.200000e-01
      vertex 6.285714e-01 -1.000000e+00 1.700000e-01
    endloop
  endfacet
  facet normal 0.000000e+00 -1.000000e+00 0.000000e+00
    outer loop
      vertex 7.142857e-01 -1.000000e+00 1.200000e-01
      vertex 7.142857e-01 -1.000000e+00 1.700000e-01
      vertex 6.285714e-01 -1.000000e+00 1.700000e-01
    endloop
  endfacet
  facet normal -0.000000e+00 1.000000e+00 0.000000e+00
    outer loop
      vertex 7.142857e-01 -1.000000e+00 1.500000e-01
      vertex 8.000000e-01 -1.000000e+00 1.500000e-01
      vertex 7.142857e-01 -1.000000e+00 1.200000e-01
    endloop
  endfacet
  facet normal 0.000000e+00 1.000000e+00 0.000000e+00
    outer loop
      vertex 8.000000e-01 -1.000000e+00 1.500000e-01
      vertex 8.000000e-01 -1.000000e+00 1.200000e-01
      vertex 7.142857e-01 -1.000000e+00 1.200000e-01
    endloop
  endfacet
  facet normal 0.000000e+00 -1.000000e+00 0.000000e+00
    outer loop
      vertex 7.142857e-01 -1.000000e+00 1.200000e-01
      vertex 8.000000e-01 -1.000000e+00 1.200000e-01
      vertex 7.142857e-01 -1.000000e+00 1.700000e-01
    endloop
  endfacet
  facet normal 0.000000e+00 -1.000000e+00 0.000000e+00
    outer loop
      vertex 8.000000e-01 -1.000000e+00 1.200000e-01
      vertex 8.000000e-01 -1.000000e+00 1.700000e-01
      vertex 7.142857e-01 -1.000000e+00 1.700000e-01
    endloop
  endfacet
  facet normal -0.000000e+00 1.000000e+00 0.000000e+00
    outer loop
      vertex 8.000000e-01 -1.000000e+00 1.500000e-01
      vertex 8.857143e-01 -1.000000e+00 1.500000e-01
      vertex 8.000000e-01 -1.000000e+00 1.200000e-01
    endloop
  endfacet
  facet normal 0.000000e+00 1.000000e+00 0.000000e+00
    outer loop
      vertex 8.857143e-01 -1.000000e+00 1.500000e-01
      vertex 8.857143e-01 -1.000000e+00 1.200000e-01
      vertex 8.000000e-01 -1.000000e+00 1.200000e-01
    endloop
  endfacet
  facet normal 0.000000e+00 -1.000000e+00 0.000000e+00
    outer loop
      vertex 8.000000e-01 -1.000000e+00 1.200000e-01
      vertex 8.857143e-01 -1.000000e+00 1.200000e-01
      vertex 8.000000e-01 -1.000000e+00 1.700000e-01
    endloop
  endfacet
  facet normal 0.000000e+00 -1.000000e+00 0.000000e+00
    outer loop
      vertex 8.857143e-01 -1.000000e+00 1.200000e-01
      vertex 8.857143e-01 -1.000000e+00 1.700000e-01
      vertex 8.000000e-01 -1.000000e+00 1.700000e-01
    endloop
  endfacet
  facet normal -0.000000e+00 1.000000e+00 0.000000e+00
    outer loop
      vertex 2.000000e-01 1.000000e+00 1.500000e-01
      vertex 2.857143e-01 1.000000e+00 1.500000e-01
      vertex 2.000000e-01 1.000000e+00 1.200000e-01
    endloop
  endfacet
  facet normal 0.000000e+00 1.000000e+00 0.000000e+00
    outer loop
      vertex 2.857143e-01 1.000000e+00 1.500000e-01
      vertex 2.857143e-01 1.000000e+00 1.200000e-01
      vertex 2.000000e-01 1.000000e+00 1.200000e-01
    endloop
  endfacet
  facet normal 0.000000e+00 -1.000000e+00 0.000000e+00
    outer loop
      vertex 2.000000e-01 1.000000e+00 1.200000e-01
      vertex 2.857143e-01 1.000000e+00 1.200000e-01
      vertex 2.000000e-01 1.000000e+00 1.700000e-01
    endloop
  endfacet
  facet normal 0.000000e+00 -1.000000e+00 0.000000e+00
    outer loop
      vertex 2.857143e-01 1.000000e+00 1.200000e-01
      vertex 2.857143e-01 1.000000e+00 1.700000e-01
      vertex 2.000000e-01 1.000000e+00 1.700000e-01
    endloop
  endfacet
  facet normal -0.000000e+00 1.000000e+00 0.000000e+00
    outer loop
      vertex 2.857143e-01 1.000000e+00 1.500000e-01
      vertex 3.714286e-01 1.000000e+00 1.500000e-01
      vertex 2.857143e-01 1.000000e+00 1.200000e-01
    endloop
  endfacet
  facet normal 0.000000e+00 1.000000e+00 0.000000e+00
    outer loop
      vertex 3.714286e-01 1.000000e+00 1.500000e-01
      vertex 3.714286e-01 1.000000e+00 1.200000e-01
      vertex 2.857143e-01 1.000000e+00 1.200000e-01
    endloop
  endfacet
  facet normal 0.000000e+00 -1.000000e+00 0.000000e+00
    outer loop
      vertex 2.857143e-01 1.000000e+00 1.200000e-01
      vertex 3.714286e-01 1.000000e+00 1.200000e-01
      vertex 2.857143e-01 1.000000e+00 1.700000e-01
    endloop
  endfacet
  facet normal 0.000000e+00 -1.000000e+00 0.000000e+00
    outer loop
      vertex 3.714286e-01 1.000000e+00 1.200000e-01
      vertex 3.714286e-01 1.000000e+00 1.700000e-01
      vertex 2.857143e-01 1.000000e+00 1.700000e-01
    endloop
  endfacet
  facet normal -0.000000e+00 1.000000e+00 0.000000e+00
    outer loop
      vertex 3.714286e-01 1.000000e+00 1.500000e-01
      vertex 4.571429e-01 1.000000e+00 1.500000e-01
      vertex 3.714286e-01 1.000000e+00 1.200000e-01
    endloop
  endfacet
  facet normal 0.000000e+00 1.000000e+00 0.000000e+00
    outer loop
      vertex 4.571429e-01 1.000000e+00 1.500000e-01
      vertex 4.571429e-01 1.000000e+00 1.200000e-01
      vertex 3.714286e-01 1.000000e+00 1.200000e-01
    endloop
  endfacet
  facet normal 0.000000e+00 -1.000000e+00 0.000000e+00
    outer loop
      vertex 3.714286e-01 1.000000e+00 1.200000e-01
      vertex 4.571429e-01 1.000000e+00 1.200000e-01
      vertex 3.714286e-01 1.000000e+00 1.700000e-01
    endloop
  endfacet
  facet normal 0.000000e+00 -1.000000e+00 0.000000e+00
    outer loop
      vertex 4.571429e-01 1.000000e+00 1.200000e-01
      vertex 4.571429e-01 1.000000e+00 1.700000e-01
      vertex 3.714286e-01 1.000000e+00 1.700000e-01
    endloop
  endfacet
  facet normal -0.000000e+00 1.000000e+00 0.000000e+00
    outer loop
      vertex 4.571429e-01 1.000000e+00 1.500000e-01
      vertex 5.428571e-01 1.000000e+00 1.500000e-01
      vertex 4.571429e-01 1.000000e+00 1.200000e-01
    endloop
  endfacet
  facet normal 0.000000e+00 1.000000e+00 0.000000e+00
    outer loop
      vertex 5.428571e-01 1.000000e+00 1.500000e-01
      vertex 5.428571e-01 1.000000e+00 1.200000e-01
      vertex 4.571429e-01 1.000000e+00 1.200000e-01
    endloop
  endfacet
  facet normal 0.000000e+00 -1.000000e+00 0.000000e+00
    outer loop
      vertex 4.571429e-01 1.000000e+00 1.200000e-01
      vertex 5.428571e-01 1.000000e+00 1.200000e-01
      vertex 4.571429e-01 1.000000e+00 1.700000e-01
    endloop
  endfacet
  facet normal 0.000000e+00 -1.000000e+00 0.000000e+00
    outer loop
      vertex 5.428571e-01 1.000000e+00 1.200000e-01
      vertex 5.428571e-01 1.000000e+00 1.700000e-01
      vertex 4.571429e-01 1.000000e+00 1.700000e-01
    endloop
  endfacet
  facet normal -0.000000e+00 1.000000e+00 0.000000e+00
    outer loop
      vertex 5.428571e-01 1.000000e+00 1.500000e-01
      vertex 6.285714e-01 1.000000e+00 1.500000e-01
      vertex 5.428571e-01 1.000000e+00 1.200000e-01
    endloop
  endfacet
  facet normal 0.000000e+00 1.000000e+00 0.000000e+00
    outer loop
      vertex 6.285714e-01 1.000000e+00 1.500000e-01
      vertex 6.285714e-01 1.000000e+00 1.200000e-01
      vertex 5.428571e-01 1.000000e+00 1.200000e-01
    endloop
  endfacet
  facet normal 0.000000e+00 -1.000000e+00 0.000000e+00
    outer loop
      vertex 5.428571e-01 1.000000e+00 1.200000e-01
      vertex 6.285714e-01 1.000000e+00 1.200000e-01
      vertex 5.428571e-01 1.000000e+00 1.700000e-01
    endloop
  endfacet
  facet normal 0.000000e+00 -1.000000e+00 0.000000e+00
    outer loop
      vertex 6.285714e-01 1.000000e+00 1.200000e-01
      vertex 6.285714e-01 1.000000e+00 1.700000e-01
      vertex 5.428571e-01 1.000000e+00 1.700000e-01
    endloop
  endfacet
  facet normal -0.000000e+00 1.000000e+00 0.000000e+00
    outer loop
      vertex 6.285714e-01 1.000000e+00 1.500000e-01
      vertex 7.142857e-01 1.000000e+00 1.500000e-01
      vertex 6.285714e-01 1.000000e+00 1.200000e-01
    endloop
  endfacet
  facet normal 0.000000e+00 1.000000e+00 0.000000e+00
    outer loop
      vertex 7.142857e-01 1.000000e+00 1.500000e-01
      vertex 7.142857e-01 1.000000e+00 1.200000e-01
      vertex 6.285714e-01 1.000000e+00 1.200000e-01
    endloop
  endfacet
  facet normal 0.000000e+00 -1.000000e+00 0.000000e+00
    outer loop
      vertex 6.285714e-01 1.000000e+00 1.200000e-01
      vertex 7.142857e-01 1.000000e+00 1.200000e-01
      vertex 6.285714e-01 1.000000e+00 1.700000e-01
    endloop
  endfacet
  facet normal 0.000000e+00 -1.000000e+00 0.000000e+00
    outer loop
      vertex 7.142857e-01 1.000000e+00 1.200000e-01
      vertex 7.142857e-01 1.000000e+00 1.700000e-01
      vertex 6.285714e-01 1.000000e+00 1.700000e-01
    endloop
  endfacet
  facet normal -0.000000e+00 1.000000e+00 0.000000e+00
    outer loop
      vertex 7.142857e-01 1.000000e+00 1.500000e-01
      vertex 8.000000e-01 1.000000e+00 1.500000e-01
      vertex 7.142857e-01 1.000000e+00 1.200000e-01
    endloop
  endfacet
  facet normal 0.000000e+00 1.000000e+00 0.000000e+00
    outer loop
      vertex 8.000000e-01 1.000000e+00 1.500000e-01
      vertex 8.000000e-01 1.000000e+00 1.200000e-01
      vertex 7.142857e-01 1.000000e+00 1.200000e-01
    endloop
  endfacet
  facet normal 0.000000e+00 -1.000000e+00 0.000000e+00
    outer loop
      vertex 7.142857e-01 1.000000e+00 1.200000e-01
      vertex 8.000000e-01 1.000000e+00 1.200000e-01
      vertex 7.142857e-01 1.000000e+00 1.700000e-01
    endloop
  endfacet
  facet normal 0.000000e+00 -1.000000e+00 0.000000e+00
    outer loop
      vertex 8.000000e-01 1.000000e+00 1.200000e-01
      vertex 8.000000e-01 1.000000e+00 1.700000e-01
      vertex 7.142857e-01 1.000000e+00 1.700000e-01
    endloop
  endfacet
  facet normal -0.000000e+00 1.000000e+00 0.000000e+00
    outer loop
      vertex 8.000000e-01 1.000000e+00 1.500000e-01
      vertex 8.857143e-01 1.000000e+00 1.500000e-01
      vertex 8.000000e-01 1.000000e+00 1.200000e-01
    endloop
  endfacet
  facet normal 0.000000e+00 1.000000e+00 0.000000e+00
    outer loop
      vertex 8.857143e-01 1.000000e+00 1.500000e-01
      vertex 8.857143e-01 1.000000e+00 1.200000e-01
      vertex 8.000000e-01 1.000000e+00 1.200000e-01
    endloop
  endfacet
  facet normal 0.000000e+00 -1.000000e+00 0.000000e+00
    outer loop
      vertex 8.000000e-01 1.000000e+00 1.200000e-01
      vertex 8.857143e-01 1.000000e+00 1.200000e-01
      vertex 8.000000e-01 1.000000e+00 1.700000e-01
    endloop
  endfacet
  facet normal 0.000000e+00 -1.000000e+00 0.000000e+00
    outer loop
      vertex 8.857143e-01 1.000000e+00 1.200000e-01
      vertex 8.857143e-01 1.000000e+00 1.700000e-01
      vertex 8.000000e-01 1.000000e+00 1.700000e-01
    endloop
  endfacet
  facet normal 0.000000e+00 0.000000e+00 -1.000000e+00
    outer loop
      vertex 2.000000e-01 -1.000000e+00 1.500000e-01
      vertex 2.000000e-01 1.000000e+00 1.500000e-01
      vertex 2.857143e-01 -1.000000e+00 1.500000e-01
    endloop
  endfacet
  facet normal 0.000000e+00 0.000000e+00 -1.000000e+00
    outer loop
      vertex 2.000000e-01 1.000000e+00 1.500000e-01
      vertex 2.857143e-01 1.000000e+00 1.500000e-01
      vertex 2.857143e-01 -1.000000e+00 1.500000e-01
    endloop
  endfacet
  facet normal 0.000000e+00 0.000000e+00 -1.000000e+00
    outer loop
      vertex 2.857143e-01 -1.000000e+00 1.500000e-01
      vertex 2.857143e-01 1.000000e+00 1.500000e-01
      vertex 3.714286e-01 -1.000000e+00 1.500000e-01
    endloop
  endfacet
  facet normal 0.000000e+00 0.000000e+00 -1.000000e+00
    outer loop
      vertex 2.857143e-01 1.000000e+00 1.500000e-01
      vertex 3.714286e-01 1.000000e+00 1.500000e-01
      vertex 3.714286e-01 -1.000000e+00 1.500000e-01
    endloop
  endfacet
  facet normal 0.000000e+00 0.000000e+00 -1.000000e+00
    outer loop
      vertex 3.714286e-01 -1.000000e+00 1.500000e-01
      vertex 3.714286e-01 1.000000e+00 1.500000e-01
      vertex 4.571429e-01 -1.000000e+00 1.500000e-01
    endloop
  endfacet
  facet normal 0.000000e+00 0.000000e+00 -1.000000e+00
    outer loop
      vertex 3.714286e-01 1.000000e+00 1.500000e-01
      vertex 4.571429e-01 1.000000e+00 1.500000e-01
      vertex 4.571429e-01 -1.000000e+00 1.500000e-01
    endloop
  endfacet
  facet normal 0.000000e+00 0.000000e+00 -1.000000e+00
    outer loop
      vertex 4.571429e-01 -1.000000e+00 1.500000e-01
      vertex 4.571429e-01 1.000000e+00 1.500000e-01
      vertex 5.428571e-01 -1.000000e+00 1.500000e-01
    endloop
  endfacet
  facet normal 0.000000e+00 0.000000e+00 -1.000000e+00
    outer loop
      vertex 4.571429e-01 1.000000e+00 1.500000e-01
      vertex 5.428571e-01 1.000000e+00 1.500000e-01
      vertex 5.428571e-01 -1.000000e+00 1.500000e-01
    endloop
  endfacet
  facet normal 0.000000e+00 0.000000e+00 -1.000000e+00
    outer loop
      vertex 5.428571e-01 -1.000000e+00 1.500000e-01
      vertex 5.428571e-01 1.000000e+00 1.500000e-01
      vertex 6.285714e-01 -1.000000e+00 1.500000e-01
    endloop
  endfacet
  facet normal 0.000000e+00 0.000000e+00 -1.000000e+00
    outer loop
      vertex 5.428571e-01 1.000000e+00 1.500000e-01
      vertex 6.285714e-01 1.000000e+00 1.500000e-01
      vertex 6.285714e-01 -1.000000e+00 1.500000e-01
    endloop
  endfacet
  facet normal 0.000000e+00 0.000000e+00 -1.000000e+00
    outer loop
      vertex 6.285714e-01 -1.000000e+00 1.500000e-01
      vertex 6.285714e-01 1.000000e+00 1.500000e-01
      vertex 7.142857e-01 -1.000000e+00 1.500000e-01
    endloop
  endfacet
  facet normal 0.000000e+00 0.000000e+00 -1.000000e+00
    outer loop
      vertex 6.285714e-01 1.000000e+00 1.500000e-01
      vertex 7.142857e-01 1.000000e+00 1.500000e-01
      vertex 7.142857e-01 -1.000000e+00 1.500000e-01
    endloop
  endfacet
  facet normal 0.000000e+00 0.000000e+00 -1.000000e+00
    outer loop
      vertex 7.142857e-01 -1.000000e+00 1.500000e-01
      vertex 7.142857e-01 1.000000e+00 1.500000e-01
      vertex 8.000000e-01 -1.000000e+00 1.500000e-01
    endloop
  endfacet
  facet normal 0.000000e+00 0.000000e+00 -1.000000e+00
    outer loop
      vertex 7.142857e-01 1.000000e+00 1.500000e-01
      vertex 8.000000e-01 1.000000e+00 1.500000e-01
      vertex 8.000000e-01 -1.000000e+00 1.500000e-01
    endloop
  endfacet
  facet normal 0.000000e+00 0.000000e+00 -1.000000e+00
    outer loop
      vertex 8.000000e-01 -1.000000e+00 1.500000e-01
      vertex 8.000000e-01 1.000000e+00 1.500000e-01
      vertex 8.857143e-01 -1.000000e+00 1.500000e-01
    endloop
  endfacet
  facet normal 0.000000e+00 0.000000e+00 -1.000000e+00
    outer loop
      vertex 8.000000e-01 1.000000e+00 1.500000e-01
      vertex 8.857143e-01 1.000000e+00 1.500000e-01
      vertex 8.857143e-01 -1.000000e+00 1.500000e-01
    endloop
  endfacet
  facet normal 0.000000e+00 0.000000e+00 1.000000e+00
    outer loop
      vertex 2.000000e-01 -1.000000e+00 1.200000e-01
      vertex 2.857143e-01 -1.000000e+00 1.200000e-01
      vertex 2.000000e-01 1.000000e+00 1.200000e-01
    endloop
  endfacet
  facet normal 0.000000e+00 -0.000000e+00 1.000000e+00
    outer loop
      vertex 2.857143e-01 -1.000000e+00 1.200000e-01
      vertex 2.857143e-01 1.000000e+00 1.200000e-01
      vertex 2.000000e-01 1.000000e+00 1.200000e-01
    endloop
  endfacet
  facet normal 0.000000e+00 0.000000e+00 1.000000e+00
    outer loop
      vertex 2.857143e-01 -1.000000e+00 1.200000e-01
      vertex 3.714286e-01 -1.000000e+00 1.200000e-01
      vertex 2.857143e-01 1.000000e+00 1.200000e-01
    endloop
  endfacet
  facet normal 0.000000e+00 -0.000000e+00 1.000000e+00
    outer loop
      vertex 3.714286e-01 -1.000000e+00 1.200000e-01
      vertex 3.714286e-01 1.000000e+00 1.200000e-01
      vertex 2.857143e-01 1.000000e+00 1.200000e-01
    endloop
  endfacet
  facet normal 0.000000e+00 0.000000e+00 1.000000e+00
    outer loop
      vertex 3.714286e-01 -1.000000e+00 1.200000e-01
      vertex 4.571429e-01 -1.000000e+00 1.200000e-01
      vertex 3.714286e-01 1.000000e+00 1.200000e-01
    endloop
  endfacet
  facet normal 0.000000e+00 -0.000000e+00 1.000000e+00
    outer loop
      vertex 4.571429e-01 -1.000000e+00 1.200000e-01
      vertex 4.571429e-01 1.000000e+00 1.200000e-01
      vertex 3.714286e-01 1.000000e+00 1.200000e-01
    endloop
  endfacet
  facet normal 0.000000e+00 0.000000e+00 1.000000e+00
    outer loop
      vertex 4.571429e-01 -1.000000e+00 1.200000e-01
      vertex 5.428571e-01 -1.000000e+00 1.200000e-01
      vertex 4.571429e-01 1.000000e+00 1.200000e-01
    endloop
  endfacet
  facet normal 0.000000e+00 -0.000000e+00 1.000000e+00
    outer loop
      vertex 5.428571e-01 -1.000000e+00 1.200000e-01
      vertex 5.428571e-01 1.000000e+00 1.200000e-01
      vertex 4.571429e-01 1.000000e+00 1.200000e-01
    endloop
  endfacet
  facet normal 0.000000e+00 0.000000e+00 1.000000e+00
    outer loop
      vertex 5.428571e-01 -1.000000e+00 1.200000e-01
      vertex 6.285714e-01 -1.000000e+00 1.200000e-01
      vertex 5.428571e-01 1.000000e+00 1.200000e-01
    endloop
  endfacet
  facet normal 0.000000e+00 -0.000000e+00 1.000000e+00
    outer loop
      vertex 6.285714e-01 -1.000000e+00 1.200000e-01
      vertex 6.285714e-01 1.000000e+00 1.200000e-01
      vertex 5.428571e-01 1.000000e+00 1.200000e-01
    endloop
  endfacet
  facet normal 0.000000e+00 0.000000e+00 1.000000e+00
    outer loop
      vertex 6.285714e-01 -1.000000e+00 1.200000e-01
      vertex 7.142857e-01 -1.000000e+00 1.200000e-01
      vertex 6.285714e-01 1.000000e+00 1.200000e-01
    endloop
  endfacet
  facet normal 0.000000e+00 -0.000000e+00 1.000000e+00
    outer loop
      vertex 7.142857e-01 -1.000000e+00 1.200000e-01
      vertex 7.142857e-01 1.000000e+00 1.200000e-01
      vertex 6.285714e-01 1.000000e+00 1.200000e-01
    endloop
  endfacet
  facet normal 0.000000e+00 0.000000e+00 1.000000e+00
    outer loop
      vertex 7.142857e-01 -1.000000e+00 1.200000e-01
      vertex 8.000000e-01 -1.000000e+00 1.200000e-01
      vertex 7.142857e-01 1.000000e+00 1.200000e-01
    endloop
  endfacet
  facet normal 0.000000e+00 -0.000000e+00 1.000000e+00
    outer loop
      vertex 8.000000e-01 -1.000000e+00 1.200000e-01
      vertex 8.000000e-01 1.000000e+00 1.200000e-01
      vertex 7.142857e-01 1.000000e+00 1.200000e-01
    endloop
  endfacet
  facet normal 0.000000e+00 0.000000e+00 1.000000e+00
    outer loop
      vertex 8.000000e-01 -1.000000e+00 1.200000e-01
      vertex 8.857143e-01 -1.000000e+00 1.200000e-01
      vertex 8.000000e-01 1.000000e+00 1.200000e-01
    endloop
  endfacet
  facet normal 0.000000e+00 -0.000000e+00 1.000000e+00
    outer loop
      vertex 8.857143e-01 -1.000000e+00 1.200000e-01
      vertex 8.857143e-01 1.000000e+00 1.200000e-01
      vertex 8.000000e-01 1.000000e+00 1.200000e-01
    endloop
  endfacet
endsolid wings
